<svg width="533" height="533" viewBox="0 0 533 533" fill="none" xmlns="http://www.w3.org/2000/svg">
<path d="M260.172 95.0847C268.139 94.3836 272.069 98.8469 272.26 106.547C272.385 111.598 270.797 114.301 267.396 117.772C267.316 119.392 267.413 120.63 267.519 122.246C274.622 122.494 284.457 122.784 290.583 126.709C293.754 128.74 296.626 132.178 299.304 134.843C306.068 141.573 326.738 162.046 328.128 170.304C328.896 174.865 326.553 180.184 324.009 183.84C324.869 193.336 325.144 204.642 325.574 214.255C328.018 217.359 327.678 219.634 326.192 223.146C328.087 223.899 328.495 224.4 329.741 226.026C329.761 227.09 329.698 228.251 329.662 229.323C335.242 234.094 337.758 243.855 342 249.172C347.699 256.312 350.088 255.235 351.426 265.568C353.468 266.199 354.118 266.415 355.663 267.87C356.99 267.21 361.83 264.527 363.061 265.573C363 265.783 362.905 266.171 362.76 266.331C355.396 274.455 346.341 284.616 335.902 288.491C335.014 288.82 329.998 288.89 329.284 288.422C330.808 285.658 327.132 283.763 325.721 281.976C325.203 281.319 324.594 279.727 324.255 278.916C326.118 275.311 328.732 271.794 330.858 268.278C334.422 262.388 330.013 259.724 325.957 255.755C322.043 251.957 318.091 248.199 314.102 244.479C312.058 242.584 309.909 240.674 307.923 238.735C307.266 238.094 307.028 237.281 307.241 236.449C307.807 234.254 305.463 234.906 303.937 233.708C302.031 232.304 302.992 229.513 302.691 227.713C302.631 227.35 299.978 224.858 299.443 224.038C298.549 225.024 297.591 225.872 296.614 226.773C297.296 227.417 297.695 228.061 298.231 228.824C298.327 232.143 298.069 232.385 296.018 234.939C298.708 237.664 298.649 238.56 296.907 241.839C297.145 248.646 297.956 255.905 298.361 262.791C299.2 263.602 299.46 263.81 299.466 264.939C297.81 267.093 298.537 266.745 299.619 268.747C300.707 270.761 300.589 274.994 300.684 277.312C299.674 278.106 298.807 278.606 297.718 279.27L297.777 284.338C300.699 285.421 301.294 286.301 302.512 289.119C315.299 289.329 398.426 289.638 403.643 292.751L403.617 293.087C398.26 295.482 325.304 295.334 314.441 295.4C276.793 295.726 239.143 295.742 201.496 295.446C187.843 295.423 174.191 295.28 160.542 295.018C154.407 294.888 147.195 294.83 141.11 294.401C139.096 294.343 130.619 293.997 129.531 293.031C130.811 291.676 142.398 291.274 144.706 291.147C153.362 290.72 162.023 290.408 170.688 290.212C190.39 289.677 210.063 288.949 229.776 288.882C233.881 288.868 262.538 289.221 263.805 288.562C264.063 286.32 265.161 286.538 265.685 284.805C266.052 282.842 262.746 281.127 263.695 278.953C265.893 273.915 279.605 273.768 281.526 269.031C284.579 261.506 273.773 241.42 275.74 235.284L275.852 234.946C271.415 230.767 273.867 230.905 274.977 226.256C272.249 220.345 274.925 219.097 278.985 215.456C279.837 212.324 280.581 208.188 281.268 204.953C282.379 199.759 283.546 194.578 284.771 189.409C280.157 188.639 278.954 187.311 276.017 183.782C272.13 186.872 268.52 188.597 264.423 191.191C261.37 202.735 260.094 204.505 248.33 207.309L219.02 260.186L210.35 275.873C208.239 279.71 205.419 284.959 202.96 288.447C195.404 289.155 179.359 288.145 171.938 285.18C169.011 284.01 167.122 280.807 169.15 277.783C172.747 272.419 177.23 275.395 181.946 276.585C187.616 278.014 194.183 280.104 199.989 279.059C203.049 278.468 205.708 272.299 207.166 269.669L214.292 256.88C223.89 239.782 233.4 222.079 243.161 205.166C242.557 204.61 240.988 203.258 240.933 202.462C240.682 198.832 242.374 195.328 243.319 191.905C243.931 189.69 244.161 186.308 245.181 184.368C246.722 183.249 248.064 183.478 249.979 183.486C250.322 180.228 250.817 178.731 251.979 175.761C253.133 172.553 258.034 166.397 257.258 163.052C255.236 154.329 249.537 148.677 255.91 139.6C261.485 131.657 267.255 128.38 276.79 126.455C276.361 126.417 275.931 126.383 275.501 126.356C268.02 125.882 263.375 126.981 257.805 131.888C257.135 129.462 257.099 128.922 255.905 126.728C253.621 127.725 252.112 129.023 249.46 129.899C247.968 128.009 245.26 121.432 243.925 118.75C244.28 115.688 244.193 113.901 244.104 110.838C242.024 110.899 237.255 111.444 236.199 109.425L236.421 108.83C238.002 107.366 239.529 107.066 241.584 106.394C241.71 104.778 241.755 103.561 242.747 102.209C245.823 98.0178 255.329 95.7228 260.172 95.0847Z" fill="#3B3A3A"/>
<path d="M291.209 133.66C293.868 135.049 313.379 156.167 316.161 159.703C317.656 161.604 321.597 167.03 322.942 169.41C309.652 178.188 300.336 181.611 285.566 186.369C291.859 182.484 298.736 178.592 305.175 174.904C309.094 172.457 313.092 170.139 317.161 167.953C316.594 166.998 315.954 166.024 315.357 165.081C305.699 168.88 294.208 171.841 284.088 175.404C292.064 170.394 302.939 165.149 311.48 160.883C305.165 151.659 297.745 142.689 291.209 133.66Z" fill="white"/>
<path d="M270.859 155.039C271.312 155.458 272.057 156.656 272.265 157.174C273.695 160.739 279.055 170.844 277.614 174.249C275.239 179.86 265.113 185.258 259.996 187.663C258.776 187.585 258.121 187.214 257 186.74C261.89 183.643 270.961 176.55 274.266 171.766C276.308 168.812 272.005 158.812 270.859 155.039Z" fill="white"/>
<path d="M319.406 186.623L319.639 186.756C319.661 186.845 319.774 187.232 319.78 187.304C320.422 196.052 320.587 204.858 321.357 213.595C321.448 214.617 322.074 218.673 321.757 219.128L320.943 217.805C317.132 209.407 316.788 197.5 316.549 188.24L319.406 186.623Z" fill="white"/>
<path d="M289.616 281.412C290.683 281.84 291.273 283.249 291.734 284.223C290.84 285.414 290.413 286.203 289.702 287.485C285.413 287.253 279.482 287.53 275.1 287.607C274.17 287.049 272.756 285.239 272.961 284.047C273.705 283.618 287.084 281.957 289.616 281.412Z" fill="white"/>
<path d="M343.601 270.838C345.111 271.637 347.357 272.224 347.476 273.91C346.436 276.499 341.546 279.533 339.127 281.26C338.618 281.55 338.334 281.685 337.807 281.932C336.783 281.603 336.543 281.004 335.752 280.079C338.628 276.571 340.623 275.112 343.601 270.838Z" fill="white"/>
<path d="M260.62 140.218C260.733 140.822 259.434 146.376 259.686 148.599C260.197 153.122 263.408 161.368 261.49 165.416L261.183 165.162C260.263 156.436 254.132 148.212 260.62 140.218Z" fill="white"/>
<path d="M183.303 427.989L402.197 427.85L402.176 438.857L349.391 438.837L130.773 438.917L130.783 428.086L183.303 427.989Z" fill="#3B3A3A"/>
<path d="M160.829 316.91L171.87 316.892C171.918 333.705 171.746 350.661 171.965 367.443L171.675 367.802C169.503 368.078 163.155 367.944 160.681 367.951L160.784 347.956L142.668 347.931C142.598 354.572 142.57 361.213 142.586 367.854C138.829 367.945 135.071 367.938 131.314 367.834L131.403 316.915L142.552 316.932C142.591 323.703 142.558 330.475 142.452 337.246L160.81 337.243L160.829 316.91Z" fill="#3B3A3A"/>
<path d="M303.671 316.801L317.421 316.76C313.307 322.083 308.839 327.321 304.675 332.623C302.23 335.735 299.803 338.505 297.624 341.85C300.022 345.403 307.377 353.442 310.395 356.914C313.435 360.649 316.432 364.471 319.783 367.924L304.856 367.847C299.274 361.956 293.24 354.773 287.813 348.62C287.386 354.057 287.605 362.26 287.601 367.869C285.387 367.938 278.365 368.19 276.546 367.563C275.983 365.64 275.713 322.173 276.165 316.851L287.451 316.892C287.455 323.801 287.501 330.709 287.588 337.617C291.872 331.455 298.835 322.704 303.671 316.801Z" fill="#3B3A3A"/>
<path d="M320.625 316.815L351.589 316.747V327.39L331.911 327.402L331.924 336.983L348.959 337.039L348.982 347.415L332.025 347.426L332.018 352.262L332.009 357.352L353.019 357.311C352.9 360.769 352.927 364.428 352.901 367.904C342.323 368.091 331.235 367.988 320.649 367.957C320.569 351.151 320.318 333.604 320.625 316.815Z" fill="#3B3A3A"/>
<path d="M253.627 316.316C259.618 316.346 265.334 317.677 270.064 321.545C270.018 326.415 270.011 331.286 270.04 336.157C269.162 335.11 268.235 334.105 267.262 333.146C263.5 329.464 259.033 327.217 253.697 327.327C245.18 327.503 238.988 334.65 239.389 343.047C239.543 347.091 241.344 350.897 244.374 353.581C247.451 356.242 251.451 357.587 255.51 357.326C260.764 356.954 264.769 354.25 268.158 350.406L269.896 348.377C270.281 352.416 270.124 358.434 270.124 362.638C261.737 370.75 245.906 370.125 237.399 362.38C219.429 346.021 228.61 317.951 253.627 316.316Z" fill="#3B3A3A"/>
<path d="M353.949 316.745L366.885 316.711C370.078 322.768 373.768 329.128 377.09 335.178C380.122 330.183 384.811 321.924 387.596 316.804C391.694 316.64 396.473 316.751 400.623 316.748C397.909 322.236 391.843 331.737 388.572 337.22C387.628 338.808 383.451 345.576 383.285 346.563C382.339 352.168 382.745 362.113 382.761 367.946L371.887 367.926C371.85 363.702 371.915 359.475 371.929 355.252C371.936 352.914 372.112 350.383 371.736 348.07C371.224 344.921 356.553 321.393 353.949 316.745Z" fill="#3B3A3A"/>
<path d="M151.179 408.442C151.179 407.858 151.089 407.334 150.91 406.87C150.745 406.391 150.431 405.957 149.966 405.567C149.502 405.163 148.851 404.766 148.012 404.377C147.174 403.988 146.088 403.583 144.755 403.164C143.273 402.685 141.865 402.146 140.533 401.547C139.215 400.948 138.047 400.252 137.029 399.458C136.026 398.649 135.232 397.714 134.648 396.65C134.079 395.587 133.794 394.352 133.794 392.944C133.794 391.582 134.094 390.346 134.693 389.238C135.292 388.115 136.13 387.157 137.209 386.363C138.287 385.555 139.559 384.933 141.027 384.499C142.509 384.065 144.134 383.848 145.901 383.848C148.312 383.848 150.416 384.282 152.212 385.15C154.009 386.019 155.402 387.209 156.39 388.722C157.393 390.234 157.895 391.964 157.895 393.91H151.202C151.202 392.952 151 392.113 150.595 391.395C150.206 390.661 149.607 390.084 148.798 389.665C148.005 389.246 147.001 389.036 145.789 389.036C144.621 389.036 143.647 389.216 142.869 389.575C142.09 389.92 141.506 390.391 141.117 390.99C140.727 391.574 140.533 392.233 140.533 392.967C140.533 393.521 140.667 394.022 140.937 394.472C141.222 394.921 141.641 395.34 142.195 395.729C142.749 396.119 143.43 396.486 144.239 396.83C145.047 397.174 145.983 397.511 147.046 397.841C148.828 398.38 150.393 398.986 151.741 399.66C153.103 400.334 154.241 401.09 155.155 401.929C156.068 402.767 156.757 403.718 157.221 404.781C157.685 405.844 157.917 407.05 157.917 408.397C157.917 409.82 157.64 411.093 157.086 412.216C156.532 413.339 155.731 414.29 154.683 415.068C153.635 415.847 152.385 416.438 150.932 416.843C149.48 417.247 147.855 417.449 146.058 417.449C144.441 417.449 142.846 417.24 141.274 416.82C139.702 416.386 138.272 415.735 136.984 414.866C135.711 413.998 134.693 412.89 133.929 411.542C133.166 410.194 132.784 408.6 132.784 406.758H139.544C139.544 407.776 139.702 408.637 140.016 409.341C140.331 410.045 140.772 410.614 141.341 411.048C141.925 411.482 142.614 411.797 143.408 411.991C144.216 412.186 145.1 412.283 146.058 412.283C147.226 412.283 148.184 412.118 148.933 411.789C149.697 411.46 150.258 411.003 150.618 410.419C150.992 409.835 151.179 409.176 151.179 408.442ZM182.837 406.151H189.552C189.418 408.353 188.811 410.307 187.733 412.014C186.67 413.721 185.18 415.053 183.263 416.012C181.362 416.97 179.071 417.449 176.39 417.449C174.294 417.449 172.415 417.09 170.753 416.371C169.09 415.637 167.668 414.589 166.485 413.227C165.317 411.864 164.426 410.217 163.812 408.285C163.198 406.354 162.891 404.19 162.891 401.794V399.525C162.891 397.13 163.206 394.966 163.835 393.034C164.478 391.088 165.392 389.433 166.575 388.07C167.773 386.708 169.203 385.66 170.865 384.926C172.527 384.192 174.384 383.825 176.435 383.825C179.16 383.825 181.459 384.319 183.331 385.308C185.217 386.296 186.677 387.659 187.711 389.396C188.759 391.132 189.388 393.109 189.597 395.325H182.859C182.784 394.007 182.522 392.892 182.073 391.979C181.624 391.05 180.942 390.354 180.029 389.89C179.131 389.41 177.933 389.171 176.435 389.171C175.312 389.171 174.331 389.381 173.493 389.8C172.654 390.219 171.95 390.855 171.381 391.709C170.812 392.562 170.386 393.641 170.101 394.943C169.832 396.231 169.697 397.743 169.697 399.48V401.794C169.697 403.486 169.824 404.976 170.079 406.264C170.333 407.536 170.723 408.615 171.247 409.498C171.786 410.367 172.475 411.025 173.313 411.475C174.167 411.909 175.192 412.126 176.39 412.126C177.798 412.126 178.958 411.901 179.872 411.452C180.785 411.003 181.481 410.337 181.961 409.453C182.455 408.57 182.747 407.469 182.837 406.151ZM213.416 384.297H220.132V405.904C220.132 408.42 219.593 410.539 218.514 412.261C217.451 413.983 215.976 415.278 214.09 416.146C212.218 417.015 210.062 417.449 207.621 417.449C205.18 417.449 203.009 417.015 201.107 416.146C199.22 415.278 197.738 413.983 196.66 412.261C195.597 410.539 195.065 408.42 195.065 405.904V384.297H201.803V405.904C201.803 407.372 202.036 408.57 202.5 409.498C202.964 410.426 203.63 411.108 204.499 411.542C205.382 411.976 206.423 412.193 207.621 412.193C208.849 412.193 209.889 411.976 210.743 411.542C211.611 411.108 212.27 410.426 212.719 409.498C213.184 408.57 213.416 407.372 213.416 405.904V384.297ZM248.083 411.744V417H231.619V411.744H248.083ZM233.798 384.297V417H227.059V384.297H233.798ZM266.062 405.343H257.729V400.087H266.062C267.349 400.087 268.397 399.877 269.206 399.458C270.015 399.024 270.606 398.425 270.98 397.661C271.355 396.897 271.542 396.036 271.542 395.078C271.542 394.105 271.355 393.199 270.98 392.36C270.606 391.522 270.015 390.848 269.206 390.339C268.397 389.83 267.349 389.575 266.062 389.575H260.064V417H253.326V384.297H266.062C268.622 384.297 270.816 384.761 272.643 385.689C274.484 386.603 275.892 387.868 276.865 389.485C277.839 391.103 278.325 392.952 278.325 395.033C278.325 397.145 277.839 398.971 276.865 400.514C275.892 402.056 274.484 403.246 272.643 404.085C270.816 404.924 268.622 405.343 266.062 405.343ZM298.977 384.297V417H292.261V384.297H298.977ZM309.039 384.297V389.575H282.356V384.297H309.039ZM332.319 384.297H339.034V405.904C339.034 408.42 338.495 410.539 337.417 412.261C336.354 413.983 334.879 415.278 332.992 416.146C331.121 417.015 328.964 417.449 326.524 417.449C324.083 417.449 321.912 417.015 320.01 416.146C318.123 415.278 316.641 413.983 315.563 412.261C314.5 410.539 313.968 408.42 313.968 405.904V384.297H320.706V405.904C320.706 407.372 320.938 408.57 321.403 409.498C321.867 410.426 322.533 411.108 323.402 411.542C324.285 411.976 325.326 412.193 326.524 412.193C327.752 412.193 328.792 411.976 329.646 411.542C330.514 411.108 331.173 410.426 331.622 409.498C332.086 408.57 332.319 407.372 332.319 405.904V384.297ZM345.962 384.297H358.159C360.659 384.297 362.808 384.671 364.605 385.42C366.417 386.169 367.809 387.277 368.783 388.744C369.756 390.212 370.243 392.016 370.243 394.157C370.243 395.909 369.943 397.414 369.344 398.672C368.76 399.915 367.929 400.955 366.851 401.794C365.788 402.618 364.537 403.276 363.1 403.771L360.966 404.894H350.365L350.32 399.638H358.203C359.386 399.638 360.367 399.428 361.146 399.009C361.925 398.59 362.508 398.006 362.898 397.257C363.302 396.508 363.504 395.64 363.504 394.651C363.504 393.603 363.31 392.697 362.92 391.934C362.531 391.17 361.939 390.586 361.146 390.182C360.352 389.777 359.356 389.575 358.159 389.575H352.701V417H345.962V384.297ZM364.245 417L356.788 402.423L363.909 402.378L371.455 416.686V417H364.245ZM398.755 411.744V417H381.348V411.744H398.755ZM383.549 384.297V417H376.811V384.297H383.549ZM396.487 397.616V402.737H381.348V397.616H396.487ZM398.733 384.297V389.575H381.348V384.297H398.733Z" fill="#1081E9"/>
<path d="M225.462 314.066C225.338 314.066 225.173 314.066 224.966 314.066C224.801 314.025 224.718 313.921 224.718 313.756C224.718 313.508 224.821 313.343 225.028 313.26H225.214C225.545 313.26 225.731 313.446 225.772 313.818C225.772 313.983 225.669 314.066 225.462 314.066Z" fill="#3B3A3A"/>
</svg>
